<svg width="292" height="51" viewBox="0 0 292 51" fill="none" xmlns="http://www.w3.org/2000/svg">
<path d="M45.1424 18.0585H34.414C34.2181 16.6849 33.818 15.4648 33.2138 14.3983C32.6096 13.3156 31.834 12.3945 30.8869 11.635C29.9398 10.8755 28.8457 10.2937 27.6047 9.88973C26.38 9.48574 25.0492 9.28375 23.6122 9.28375C21.0158 9.28375 18.7542 9.92205 16.8274 11.1987C14.9005 12.4591 13.4064 14.3013 12.345 16.7253C11.2836 19.1331 10.7529 22.058 10.7529 25.5C10.7529 29.039 11.2836 32.0124 12.345 34.4202C13.4227 36.8279 14.925 38.6459 16.8519 39.8741C18.7787 41.1022 21.0077 41.7163 23.5387 41.7163C24.9594 41.7163 26.2739 41.5304 27.4822 41.1587C28.7069 40.7871 29.7928 40.2457 30.7399 39.5347C31.687 38.8075 32.4708 37.9268 33.0914 36.8926C33.7282 35.8584 34.1691 34.6787 34.414 33.3536L45.1424 33.4021C44.8648 35.6806 44.1708 37.8783 43.0604 39.9953C41.9663 42.096 40.4885 43.9786 38.627 45.6431C36.7818 47.2913 34.5773 48.6003 32.0136 49.5699C29.4662 50.5233 26.5841 51 23.3673 51C18.893 51 14.8923 49.9981 11.3652 47.9943C7.8544 45.9905 5.07842 43.0898 3.03725 39.2923C1.01242 35.4948 0 30.8973 0 25.5C0 20.0865 1.02875 15.481 3.08624 11.6835C5.14373 7.88593 7.93605 4.99335 11.4632 3.00571C14.9903 1.0019 18.9583 0 23.3673 0C26.2739 0 28.9682 0.403992 31.4503 1.21198C33.9486 2.01996 36.1613 3.19962 38.0881 4.75095C40.015 6.28612 41.5826 8.16873 42.791 10.3988C44.0157 12.6288 44.7995 15.182 45.1424 18.0585Z" fill="white"/>
<path d="M96.0864 25.5C96.0864 30.9135 95.0495 35.519 92.9757 39.3165C90.9182 43.1141 88.1096 46.0147 84.5498 48.0185C81.0063 50.0062 77.0219 51 72.5967 51C68.1388 51 64.1381 49.9981 60.5947 47.9943C57.0512 45.9905 54.2507 43.0898 52.1932 39.2923C50.1357 35.4948 49.107 30.8973 49.107 25.5C49.107 20.0865 50.1357 15.481 52.1932 11.6835C54.2507 7.88593 57.0512 4.99335 60.5947 3.00571C64.1381 1.0019 68.1388 0 72.5967 0C77.0219 0 81.0063 1.0019 84.5498 3.00571C88.1096 4.99335 90.9182 7.88593 92.9757 11.6835C95.0495 15.481 96.0864 20.0865 96.0864 25.5ZM85.3336 25.5C85.3336 21.9933 84.8029 19.0361 83.7415 16.6283C82.6964 14.2205 81.2186 12.3945 79.3081 11.1502C77.3975 9.9059 75.1604 9.28375 72.5967 9.28375C70.033 9.28375 67.7959 9.9059 65.8854 11.1502C63.9748 12.3945 62.4889 14.2205 61.4274 16.6283C60.3824 19.0361 59.8598 21.9933 59.8598 25.5C59.8598 29.0067 60.3824 31.9639 61.4274 34.3717C62.4889 36.7795 63.9748 38.6055 65.8854 39.8498C67.7959 41.0941 70.033 41.7163 72.5967 41.7163C75.1604 41.7163 77.3975 41.0941 79.3081 39.8498C81.2186 38.6055 82.6964 36.7795 83.7415 34.3717C84.8029 31.9639 85.3336 29.0067 85.3336 25.5Z" fill="white"/>
<path d="M101.184 0.678708H114.264L128.078 34.0323H128.666L142.481 0.678708H155.56V50.3213H145.273V18.01H144.857L131.875 50.0789H124.87L111.888 17.8888H111.471V50.3213H101.184V0.678708Z" fill="white"/>
<path d="M161.54 50.3213V0.678708H181.625C185.315 0.678708 188.393 1.22006 190.859 2.30276C193.325 3.38546 195.178 4.88831 196.419 6.81131C197.66 8.71816 198.281 10.9159 198.281 13.4045C198.281 15.3436 197.889 17.0485 197.105 18.519C196.321 19.9734 195.243 21.1692 193.872 22.1065C192.516 23.0276 190.965 23.682 189.218 24.0699V24.5547C191.128 24.6355 192.916 25.1687 194.582 26.1545C196.264 27.1402 197.627 28.5219 198.673 30.2994C199.718 32.0608 200.24 34.1616 200.24 36.6017C200.24 39.2357 199.579 41.587 198.256 43.6554C196.95 45.7077 195.015 47.3317 192.451 48.5276C189.887 49.7234 186.728 50.3213 182.972 50.3213H161.54ZM172.146 41.7405H180.792C183.748 41.7405 185.903 41.183 187.258 40.068C188.614 38.9368 189.291 37.4339 189.291 35.5594C189.291 34.1858 188.957 32.9739 188.287 31.9235C187.618 30.8731 186.662 30.049 185.421 29.451C184.197 28.8531 182.735 28.5542 181.037 28.5542H172.146V41.7405ZM172.146 21.452H180.008C181.461 21.452 182.751 21.2015 183.878 20.7006C185.021 20.1835 185.919 19.4563 186.573 18.519C187.242 17.5817 187.577 16.4587 187.577 15.1497C187.577 13.356 186.932 11.9097 185.642 10.8108C184.368 9.71198 182.556 9.16255 180.204 9.16255H172.146V21.452Z" fill="white"/>
<path d="M250.48 25.5C250.48 30.9135 249.443 35.519 247.369 39.3165C245.312 43.1141 242.503 46.0147 238.943 48.0185C235.4 50.0062 231.416 51 226.99 51C222.532 51 218.532 49.9981 214.988 47.9943C211.445 45.9905 208.644 43.0898 206.587 39.2923C204.529 35.4948 203.501 30.8973 203.501 25.5C203.501 20.0865 204.529 15.481 206.587 11.6835C208.644 7.88593 211.445 4.99335 214.988 3.00571C218.532 1.0019 222.532 0 226.99 0C231.416 0 235.4 1.0019 238.943 3.00571C242.503 4.99335 245.312 7.88593 247.369 11.6835C249.443 15.481 250.48 20.0865 250.48 25.5ZM239.727 25.5C239.727 21.9933 239.196 19.0361 238.135 16.6283C237.09 14.2205 235.612 12.3945 233.702 11.1502C231.791 9.9059 229.554 9.28375 226.99 9.28375C224.427 9.28375 222.189 9.9059 220.279 11.1502C218.368 12.3945 216.882 14.2205 215.821 16.6283C214.776 19.0361 214.253 21.9933 214.253 25.5C214.253 29.0067 214.776 31.9639 215.821 34.3717C216.882 36.7795 218.368 38.6055 220.279 39.8498C222.189 41.0941 224.427 41.7163 226.99 41.7163C229.554 41.7163 231.791 41.0941 233.702 39.8498C235.612 38.6055 237.09 36.7795 238.135 34.3717C239.196 31.9639 239.727 29.0067 239.727 25.5Z" fill="white"/>
<path d="M270.274 42.7586V8.43536H279.043V42.7586H270.274ZM257.316 29.9358V21.2581H292V29.9358H257.316Z" fill="white"/>
</svg>
